<svg width="300" height="300" viewBox="0 0 300 300" fill="none" xmlns="http://www.w3.org/2000/svg">
<g filter="url(#filter0_f_2_18)">
<ellipse cx="124" cy="273.281" rx="38" ry="7" fill="url(#paint0_radial_2_18)"/>
</g>
<path fill-rule="evenodd" clip-rule="evenodd" d="M109.737 200.069L81.1448 43.7951L26.6596 28.634L29.3404 19L86.8404 35L89.8552 35.8389L90.4184 38.9171L119.457 197.635C116.079 198.07 112.823 198.897 109.737 200.069ZM167.839 236.529C167.545 233.134 166.857 229.853 165.821 226.73L275.258 207.433L276.995 217.281L167.839 236.529Z" fill="#E5E7EB"/>
<path fill-rule="evenodd" clip-rule="evenodd" d="M106.755 67.003L187.951 52.686L199.088 115.851L117.893 130.168L106.755 67.003ZM120 140.598L238.554 119.694L252.859 200.824L161.155 216.994C154.361 206.469 143.096 199.1 130.046 197.574L120 140.598Z" fill="url(#paint1_linear_2_18)"/>
<path fill-rule="evenodd" clip-rule="evenodd" d="M148 240.281C148 252.984 137.703 263.281 125 263.281C112.297 263.281 102 252.984 102 240.281C102 227.579 112.297 217.281 125 217.281C137.703 217.281 148 227.579 148 240.281ZM158 240.281C158 258.507 143.225 273.281 125 273.281C106.775 273.281 92 258.507 92 240.281C92 222.056 106.775 207.281 125 207.281C143.225 207.281 158 222.056 158 240.281ZM125 249.281C129.971 249.281 134 245.252 134 240.281C134 235.311 129.971 231.281 125 231.281C120.029 231.281 116 235.311 116 240.281C116 245.252 120.029 249.281 125 249.281Z" fill="url(#paint2_radial_2_18)"/>
<path d="M29.1306 126.338L24.7843 104.899L26.8847 104.577L28.8406 114.224L32.1766 113.713L32.5864 115.734L29.2504 116.246L31.231 126.016L29.1306 126.338ZM34.069 115.507L33.6592 113.485L36.9952 112.974L35.0394 103.326L37.1398 103.004L41.4861 124.443L39.3857 124.765L37.405 114.995L34.069 115.507ZM42.4312 120.382L42.1393 118.943C41.8909 117.612 42.2132 116.584 43.1063 115.858C43.4192 115.62 44.6893 115.025 46.9168 114.073C49.3008 113.055 50.4308 112.292 50.3067 111.785L50.1949 111.234C50.0625 110.58 49.7592 110.027 49.285 109.573C48.5223 108.848 47.6467 108.561 46.6582 108.713L46.2857 106.875C47.6448 106.667 48.8746 106.92 49.9751 107.636C51.1993 108.437 51.9501 109.522 52.2274 110.89L53.9659 119.466C54.1148 120.096 54.4508 120.391 54.9739 120.353L55.3651 122.283C54.4178 122.428 53.5814 122.177 52.8558 121.531C52.8393 121.554 52.8229 121.578 52.8064 121.602C52.1234 122.422 51.0509 122.944 49.5889 123.169L49.2039 121.27C49.3275 121.251 49.4592 121.22 49.5992 121.178C51.2836 120.793 51.954 119.753 51.6104 118.059L50.8281 114.2C50.3094 114.574 49.2266 115.098 47.5796 115.772C45.5374 116.59 44.3928 117.176 44.146 117.53C43.965 117.789 43.9118 118.155 43.9865 118.628L44.1851 119.608C44.2307 119.833 44.3071 120.052 44.4144 120.268C44.951 121.343 46.0532 121.753 47.7212 121.497L48.1062 123.396C46.85 123.589 45.6945 123.44 44.6395 122.949C43.3908 122.34 42.6547 121.485 42.4312 120.382ZM40.9337 111.896C40.7186 110.94 40.9236 110.013 41.5488 109.117C42.3386 107.986 43.4336 107.313 44.8339 107.098L45.2189 108.997C44.7246 109.072 44.2841 109.256 43.8972 109.547C42.9957 110.232 42.663 111.157 42.899 112.321L40.9337 111.896ZM57.0244 122.06L54.6154 110.177C54.4167 109.197 54.6669 108.179 55.3662 107.125C56.2217 105.899 57.432 105.166 58.9971 104.926L59.4069 106.947C58.2949 107.118 57.486 107.684 56.9803 108.646C56.7213 109.148 56.6394 109.635 56.7346 110.104L59.094 121.743L57.0244 122.06ZM60.7351 106.743L60.3253 104.722C62.2198 104.431 63.8556 104.96 65.2327 106.306C65.9254 107 66.3401 107.684 66.4767 108.358L68.8858 120.241L66.8162 120.558L64.4568 108.92C64.3243 108.267 63.8583 107.696 63.0587 107.208C62.3333 106.772 61.5588 106.617 60.7351 106.743ZM69.4533 115.575L67.9445 108.132C67.7169 107.009 68.035 105.908 68.899 104.828C69.693 103.822 70.6974 103.226 71.9124 103.04L74.8468 102.59L75.238 104.519L72.3345 104.964C71.4119 105.127 70.7122 105.655 70.2353 106.55C69.9804 107.073 69.8964 107.549 69.9833 107.978L71.4487 115.206C71.606 115.982 72.175 116.589 73.1558 117.028C73.7616 117.293 74.3219 117.386 74.8367 117.307L77.7402 116.862L78.1376 118.822L75.2958 119.258C73.4837 119.536 71.9282 118.985 70.6293 117.605C69.9819 116.925 69.5899 116.249 69.4533 115.575ZM79.5894 118.599L75.2183 97.0379L77.3187 96.7158L81.6898 118.277L79.5894 118.599Z" fill="#1E3A8A"/>
<path d="M48.1111 189.205L41.2004 155.117L47.7894 154.106L54.7001 188.195L48.1111 189.205ZM43.3891 191.13L42.2483 185.503L58.6228 182.991L59.7637 188.619L43.3891 191.13ZM37.1603 160.405L36.0063 154.713L52.3809 152.202L53.5349 157.894L37.1603 160.405ZM85.1364 184.728C83.0053 185.054 81.2912 184.784 79.9941 183.916C78.7405 183.041 77.8777 181.439 77.4056 179.11L74.1535 163.069L80.351 162.118L83.8916 179.583L90.1544 178.622L91.2035 183.797L85.1364 184.728ZM70.253 164.401L69.3089 159.743C70.2657 159.597 71.0354 159.412 71.6181 159.189C72.2007 158.966 72.6223 158.613 72.8828 158.128C73.1868 157.637 73.334 156.925 73.3244 155.993C73.3148 155.06 73.1482 153.797 72.8247 152.201L78.1742 151.381L79.5511 158.172L85.6834 157.232L86.6276 161.889L70.253 164.401Z" fill="#FF7F00"/>
<defs>
<filter id="filter0_f_2_18" x="77.2" y="257.481" width="93.6" height="31.6" filterUnits="userSpaceOnUse" color-interpolation-filters="sRGB">
<feFlood flood-opacity="0" result="BackgroundImageFix"/>
<feBlend mode="normal" in="SourceGraphic" in2="BackgroundImageFix" result="shape"/>
<feGaussianBlur stdDeviation="4.4" result="effect1_foregroundBlur_2_18"/>
</filter>
<radialGradient id="paint0_radial_2_18" cx="0" cy="0" r="1" gradientUnits="userSpaceOnUse" gradientTransform="translate(124 273.281) scale(38 7)">
<stop stop-opacity="0.8"/>
<stop offset="1" stop-color="#737373" stop-opacity="0"/>
</radialGradient>
<linearGradient id="paint1_linear_2_18" x1="126.5" y1="192.781" x2="220.5" y2="107.281" gradientUnits="userSpaceOnUse">
<stop stop-color="#7C3AED"/>
<stop offset="1" stop-color="#A855F7"/>
</linearGradient>
<radialGradient id="paint2_radial_2_18" cx="0" cy="0" r="1" gradientUnits="userSpaceOnUse" gradientTransform="translate(125 240.281) rotate(90) scale(38.5)">
<stop stop-color="#7C3AED"/>
<stop offset="1" stop-color="#A855F7"/>
</radialGradient>
</defs>
</svg>
